####
#
#	OBJ File Generated by LightWave3D
#	LightWave3D OBJ Export v2.3
#
####
o Mesa de noche.obj
mtllib Mesa de noche.mtl
g default
v -0.474 0.495 0.364
v -0.474 0.495 -0.364
v -0.474 0.525 0.364
v -0.474 0.525 -0.364
v -0.452282 0.335 0.340668
v -0.452282 0.335 0.264932
v -0.452282 0.335 -0.269432
v -0.452282 0.335 -0.345168
v -0.43916 0.38 0.32755
v -0.43916 0.38 0.27805
v -0.43916 0.38 -0.28255
v -0.43916 0.38 -0.33205
v -0.43916 0.503175 0.32755
v -0.43916 0.503175 0.27805
v -0.43916 0.503175 -0.28255
v -0.43916 0.503175 -0.33205
v -0.428228 0.27 0.327171
v -0.428228 0.27 0.282488
v -0.428228 0.27 -0.286988
v -0.428228 0.27 -0.331671
v -0.424336 0 0.322927
v -0.424336 0 0.286733
v -0.424336 0 -0.291233
v -0.424336 0 -0.327427
v -0.4116 0.415 0.315789
v -0.4116 0.415 -0.31425
v -0.4116 0.515 0.315789
v -0.4116 0.515 -0.31425
v -0.4 0.415 0.32275
v -0.4 0.415 0.29775
v -0.4 0.415 -0.30225
v -0.4 0.415 -0.32725
v -0.4 0.515 0.32275
v -0.4 0.515 0.29775
v -0.4 0.515 -0.30225
v -0.4 0.515 -0.32725
v -0.397283 0 0.322927
v -0.397283 0 0.286733
v -0.397283 0 -0.291233
v -0.397283 0 -0.327427
v -0.391793 0.27 0.327171
v -0.391793 0.27 0.282488
v -0.391793 0.27 -0.286988
v -0.391793 0.27 -0.331671
v -0.3881 0.415 0.315789
v -0.3881 0.415 -0.31425
v -0.3881 0.515 0.315789
v -0.3881 0.515 -0.31425
v -0.38246 0.38 0.32755
v -0.38246 0.38 0.27805
v -0.38246 0.38 -0.28255
v -0.38246 0.38 -0.33205
v -0.38246 0.503175 0.32755
v -0.38246 0.503175 0.27805
v -0.38246 0.503175 -0.28255
v -0.38246 0.503175 -0.33205
v -0.365531 0.335 0.340668
v -0.365531 0.335 0.264932
v -0.365531 0.335 -0.269432
v -0.365531 0.335 -0.345168
v 0.365531 0.335 0.340668
v 0.365531 0.335 0.264932
v 0.365531 0.335 -0.269432
v 0.365531 0.335 -0.345168
v 0.38246 0.38 0.32755
v 0.38246 0.38 0.27805
v 0.38246 0.38 -0.28255
v 0.38246 0.38 -0.33205
v 0.38246 0.503175 0.32755
v 0.38246 0.503175 0.27805
v 0.38246 0.503175 -0.28255
v 0.38246 0.503175 -0.33205
v 0.3881 0.415 0.315789
v 0.3881 0.415 -0.31425
v 0.3881 0.515 0.315789
v 0.3881 0.515 -0.31425
v 0.391793 0.27 0.327171
v 0.391793 0.27 0.282488
v 0.391793 0.27 -0.286988
v 0.391793 0.27 -0.331671
v 0.397283 0 0.322927
v 0.397283 0 0.286733
v 0.397283 0 -0.291233
v 0.397283 0 -0.327427
v 0.400087 0.415 0.32275
v 0.400087 0.415 0.29775
v 0.400087 0.415 -0.30225
v 0.400087 0.415 -0.32725
v 0.400087 0.515 0.32275
v 0.400087 0.515 0.29775
v 0.400087 0.515 -0.30225
v 0.400087 0.515 -0.32725
v 0.4116 0.415 0.315789
v 0.4116 0.415 -0.31425
v 0.4116 0.515 0.315789
v 0.4116 0.515 -0.31425
v 0.424336 0 0.322927
v 0.424336 0 0.286733
v 0.424336 0 -0.291233
v 0.424336 0 -0.327427
v 0.428228 0.27 0.327171
v 0.428228 0.27 0.282488
v 0.428228 0.27 -0.286988
v 0.428228 0.27 -0.331671
v 0.43916 0.38 0.32755
v 0.43916 0.38 0.27805
v 0.43916 0.38 -0.28255
v 0.43916 0.38 -0.33205
v 0.43916 0.503175 0.32755
v 0.43916 0.503175 0.27805
v 0.43916 0.503175 -0.28255
v 0.43916 0.503175 -0.33205
v 0.452282 0.335 0.340668
v 0.452282 0.335 0.264932
v 0.452282 0.335 -0.269432
v 0.452282 0.335 -0.345168
v 0.474 0.495 0.364
v 0.474 0.495 -0.364
v 0.474 0.525 0.364
v 0.474 0.525 -0.364
vt 0.533278 0.0110768
vt 0.533278 0.146212
vt 0.539657 0.296251
vt 0.5476 0.11375
vt 0.5476 0.36375
vt 0.55166 0.31597
vt 0.55166 0.369944
vt 0.552006 0.267768
vt 0.55589 0.031144
vt 0.589009 0.031144
vt 0.592893 0.267768
vt 0.596954 0.31597
vt 0.596954 0.369944
vt 0.6076 0.11375
vt 0.6076 0.36375
vt 0.608957 0.296251
vt 0.610678 0.0110768
vt 0.610678 0.146212
vn -0.701876 -0.0177534 -0.712078
vn -0.701876 -0.0177538 0.712078
vn -0.699452 0.00347719 0.714671
vn -0.699452 0.00347676 -0.714671
vn -0.695384 -0.00126419 -0.718638
vn -0.695383 -0.00126465 0.718638
vn -0.693109 0.19796 0.693117
vn -0.693109 0.19796 -0.693117
vn -0.693109 0.19796 0.693117
vn -0.693109 0.19796 -0.693117
vn -0.692692 0.0200961 0.720953
vn -0.692692 0.0200956 -0.720953
vn -0.684932 0.223588 0.693452
vn -0.684932 0.223588 -0.693452
vn -0.684932 0.223588 0.693452
vn -0.684932 0.223588 -0.693452
vn -0.684743 -0.205132 0.69932
vn -0.684743 -0.205132 -0.69932
vn -0.684063 -0.225207 -0.693787
vn -0.684063 -0.225207 0.693787
vn -0.681008 -0.21698 0.699391
vn -0.681008 -0.21698 -0.699391
vn -0.680169 -0.236989 0.693691
vn -0.680169 -0.236989 -0.693691
vn -0.57735 -0.57735 0.57735
vn -0.57735 -0.57735 0.57735
vn -0.57735 -0.57735 -0.57735
vn -0.57735 -0.57735 -0.57735
vn -0.57735 0.57735 0.57735
vn -0.57735 0.57735 0.57735
vn -0.57735 0.57735 -0.57735
vn -0.57735 0.57735 -0.57735
vn -0.57735 0.57735 0.57735
vn -0.57735 0.57735 -0.57735
vn -0.571536 -0.588817 -0.571525
vn -0.571536 -0.588817 0.571525
vn -0.571535 -0.588819 0.571524
vn -0.571535 -0.588819 -0.571524
vn -0.570359 -0.59104 -0.570406
vn -0.570359 -0.59104 0.570406
vn -0.570358 -0.591041 0.570405
vn -0.570358 -0.591041 -0.570405
vn 0.570358 -0.591041 0.570405
vn 0.570358 -0.591041 -0.570405
vn 0.570359 -0.59104 0.570406
vn 0.570359 -0.59104 -0.570406
vn 0.571535 -0.588819 0.571524
vn 0.571535 -0.588819 -0.571524
vn 0.571536 -0.588817 0.571525
vn 0.571536 -0.588817 -0.571525
vn 0.57735 0.57735 0.57735
vn 0.57735 0.57735 -0.57735
vn 0.57735 -0.57735 0.57735
vn 0.57735 -0.57735 0.57735
vn 0.57735 -0.57735 -0.57735
vn 0.57735 -0.57735 -0.57735
vn 0.57735 0.57735 0.57735
vn 0.57735 0.57735 0.57735
vn 0.57735 0.57735 -0.57735
vn 0.57735 0.57735 -0.57735
vn 0.680169 -0.236989 -0.693691
vn 0.680169 -0.236989 0.693691
vn 0.681008 -0.21698 -0.699391
vn 0.681008 -0.21698 0.699391
vn 0.684063 -0.225207 0.693787
vn 0.684063 -0.225207 -0.693787
vn 0.684743 -0.205132 0.69932
vn 0.684743 -0.205132 -0.69932
vn 0.684932 0.223588 0.693452
vn 0.684932 0.223588 -0.693452
vn 0.684932 0.223588 0.693452
vn 0.684932 0.223588 -0.693452
vn 0.692692 0.0200956 -0.720953
vn 0.692692 0.0200961 0.720953
vn 0.693109 0.19796 0.693117
vn 0.693109 0.19796 -0.693117
vn 0.693109 0.19796 0.693117
vn 0.693109 0.19796 -0.693117
vn 0.695383 -0.00126465 0.718638
vn 0.695384 -0.0012642 -0.718638
vn 0.699452 0.00347676 -0.714671
vn 0.699452 0.00347719 0.714671
vn 0.701876 -0.0177538 0.712078
vn 0.701876 -0.0177534 -0.712078
usemtl Mesa_color
s 1
f 3/1/30 4/2/31 2/2/27 1/1/26
f 2/2/27 118/18/55 117/17/54 1/1/26
f 4/2/31 120/18/59 118/18/55 2/2/27
f 119/17/58 120/18/59 4/2/31 3/1/30
f 117/17/54 119/17/58 3/1/30 1/1/26
f 118/18/55 120/18/59 119/17/58 117/17/54
f 82/10/42 98/10/48 97/9/49 81/9/40
f 66/12/16 70/13/32 110/13/60 106/12/78
f 106/12/78 110/13/60 109/7/57 105/6/77
f 65/6/15 105/6/77 109/7/57 69/7/29
f 66/12/16 65/6/15 69/7/29 70/13/32
f 70/13/32 69/7/29 109/7/57 110/13/60
f 62/16/5 66/12/16 106/12/78 114/16/84
f 114/16/84 106/12/78 105/6/77 113/3/82
f 61/3/11 113/3/82 105/6/77 65/6/15
f 62/16/5 61/3/11 65/6/15 66/12/16
f 78/11/24 62/16/5 114/16/84 102/11/66
f 102/11/66 114/16/84 113/3/82 101/8/67
f 77/8/21 101/8/67 113/3/82 61/3/11
f 78/11/24 77/8/21 61/3/11 62/16/5
f 82/10/42 78/11/24 102/11/66 98/10/48
f 98/10/48 102/11/66 101/8/67 97/9/49
f 81/9/40 97/9/49 101/8/67 77/8/21
f 82/10/42 81/9/40 77/8/21 78/11/24
f 29/4/25 33/5/29 34/5/32 30/4/28
f 29/4/25 85/14/53 89/15/57 33/5/29
f 33/5/29 89/15/57 90/15/60 34/5/32
f 30/4/28 34/5/32 90/15/60 86/14/56
f 29/4/25 30/4/28 86/14/56 85/14/53
f 85/14/53 86/14/56 90/15/60 89/15/57
f 37/9/45 21/9/36 22/10/38 38/10/44
f 10/12/8 14/13/32 54/13/60 50/12/70
f 9/6/7 13/7/29 14/13/32 10/12/8
f 53/7/57 13/7/29 9/6/7 49/6/69
f 54/13/60 53/7/57 49/6/69 50/12/70
f 14/13/32 13/7/29 53/7/57 54/13/60
f 6/16/1 10/12/8 50/12/70 58/16/80
f 5/3/3 9/6/7 10/12/8 6/16/1
f 49/6/69 9/6/7 5/3/3 57/3/74
f 50/12/70 49/6/69 57/3/74 58/16/80
f 18/11/19 6/16/1 58/16/80 42/11/61
f 17/8/17 5/3/3 6/16/1 18/11/19
f 57/3/74 5/3/3 17/8/17 41/8/64
f 58/16/80 57/3/74 41/8/64 42/11/61
f 22/10/38 18/11/19 42/11/61 38/10/44
f 21/9/36 17/8/17 18/11/19 22/10/38
f 41/8/64 17/8/17 21/9/36 37/9/45
f 42/11/61 41/8/64 37/9/45 38/10/44
f 84/9/39 100/9/50 99/10/47 83/10/41
f 107/12/75 111/13/51 71/13/33 67/12/13
f 108/6/76 112/7/52 111/13/51 107/12/75
f 72/7/34 112/7/52 108/6/76 68/6/14
f 71/13/33 72/7/34 68/6/14 67/12/13
f 111/13/51 112/7/52 72/7/34 71/13/33
f 115/16/83 107/12/75 67/12/13 63/16/6
f 116/3/81 108/6/76 107/12/75 115/16/83
f 68/6/14 108/6/76 116/3/81 64/3/12
f 67/12/13 68/6/14 64/3/12 63/16/6
f 103/11/65 115/16/83 63/16/6 79/11/23
f 104/8/68 116/3/81 115/16/83 103/11/65
f 64/3/12 116/3/81 104/8/68 80/8/22
f 63/16/6 64/3/12 80/8/22 79/11/23
f 99/10/47 103/11/65 79/11/23 83/10/41
f 100/9/50 104/8/68 103/11/65 99/10/47
f 80/8/22 104/8/68 100/9/50 84/9/39
f 79/11/23 80/8/22 84/9/39 83/10/41
f 39/10/43 23/10/37 24/9/35 40/9/46
f 51/12/71 55/13/51 15/13/33 11/12/9
f 11/12/9 15/13/33 16/7/34 12/6/10
f 52/6/72 12/6/10 16/7/34 56/7/52
f 51/12/71 52/6/72 56/7/52 55/13/51
f 55/13/51 56/7/52 16/7/34 15/13/33
f 59/16/79 51/12/71 11/12/9 7/16/2
f 7/16/2 11/12/9 12/6/10 8/3/4
f 60/3/73 8/3/4 12/6/10 52/6/72
f 59/16/79 60/3/73 52/6/72 51/12/71
f 43/11/62 59/16/79 7/16/2 19/11/20
f 19/11/20 7/16/2 8/3/4 20/8/18
f 44/8/63 20/8/18 8/3/4 60/3/73
f 43/11/62 44/8/63 60/3/73 59/16/79
f 39/10/43 43/11/62 19/11/20 23/10/37
f 23/10/37 19/11/20 20/8/18 24/9/35
f 40/9/46 24/9/35 20/8/18 44/8/63
f 39/10/43 40/9/46 44/8/63 43/11/62
f 31/4/25 35/5/29 36/5/32 32/4/28
f 36/5/32 92/15/60 88/14/56 32/4/28
f 35/5/29 91/15/57 92/15/60 36/5/32
f 87/14/53 91/15/57 35/5/29 31/4/25
f 88/14/56 87/14/53 31/4/25 32/4/28
f 92/15/60 91/15/57 87/14/53 88/14/56
f 74/4/28 76/5/32 96/5/60 94/4/56
f 74/4/28 73/14/25 75/15/29 76/5/32
f 76/5/32 75/15/29 95/15/57 96/5/60
f 94/4/56 96/5/60 95/15/57 93/14/53
f 74/4/28 94/4/56 93/14/53 73/14/25
f 73/14/25 93/14/53 95/15/57 75/15/29
f 26/4/28 28/5/32 48/5/60 46/4/56
f 48/5/60 47/15/57 45/14/53 46/4/56
f 28/5/32 27/15/29 47/15/57 48/5/60
f 25/14/25 27/15/29 28/5/32 26/4/28
f 45/14/53 25/14/25 26/4/28 46/4/56
f 47/15/57 27/15/29 25/14/25 45/14/53
